<svg width="196" height="154" viewBox="0 0 196 154" fill="none" xmlns="http://www.w3.org/2000/svg">
<path d="M7 116H169" stroke="#193D1D" stroke-width="2.4"></path>
<path d="M34.4307 91.2057L42.9684 93.5044L46.6629 80.8114L64.1101 75.3282L66.8697 65.1021V118.89C66.8697 124.082 62.6458 128.287 57.4308 128.287H27.2333C22.0183 128.287 17.7944 124.082 17.7944 118.89V101.051L27.0418 103.843L34.4307 91.2057Z" fill="white" stroke="#193D1D" stroke-width="2.4" stroke-linejoin="round"></path>
<path d="M11.6895 135.272L15.4965 143.918L22.5137 143.312L31.0515 137.851L20.3849 133.445L11.6895 135.272Z" stroke="#193D1D" stroke-width="2.4" stroke-linejoin="round"></path>
<path d="M57.9375 142.045L56.4507 134.858L66.5203 135.968L71.9606 144.669L57.9375 142.045Z" stroke="#193D1D" stroke-width="2.4" stroke-linejoin="round"></path>
<path d="M52.4412 145.947L47.2825 149.737L35.0615 145.42L49.2198 141.451L52.4412 145.947Z" stroke="#193D1D" stroke-width="2.4" stroke-linejoin="round"></path>
<path d="M139.531 30.1851H86.5245C84.764 30.1851 83.3369 31.6058 83.3369 33.3584V127.008C83.3369 128.761 84.764 130.182 86.5245 130.182H139.531C141.291 130.182 142.718 128.761 142.718 127.008V33.3584C142.718 31.6058 141.291 30.1851 139.531 30.1851Z" fill="white" stroke="#193D1D" stroke-width="2.4" stroke-linejoin="round"></path>
<path d="M89.239 27.4604H112.397" stroke="#193D1D" stroke-width="3" stroke-miterlimit="10"></path>
<path d="M40.9747 137.134C41.7274 137.134 42.3376 136.526 42.3376 135.777C42.3376 135.028 41.7274 134.42 40.9747 134.42C40.222 134.42 39.6118 135.028 39.6118 135.777C39.6118 136.526 40.222 137.134 40.9747 137.134Z" stroke="#193D1D" stroke-width="2.4" stroke-linejoin="round"></path>
<path d="M27.3572 151.318C27.9669 151.318 28.4611 150.826 28.4611 150.219C28.4611 149.612 27.9669 149.12 27.3572 149.12C26.7476 149.12 26.2534 149.612 26.2534 150.219C26.2534 150.826 26.7476 151.318 27.3572 151.318Z" stroke="#193D1D" stroke-width="2.4" stroke-linejoin="round"></path>
<path d="M17.7944 88.1222V44.7283C17.7944 35.5673 25.2622 28.1332 34.4645 28.1332L34.9939 10.0356V1.68195H48.42V9.62068L48.7917 28.0659H50.2109C59.4132 28.0659 66.8809 35.5 66.8809 44.661V67.2438L49.6815 76.0123L36.2554 75.5974L33.3156 81.8654L24.9243 81.0356L17.7944 88.1334V88.1222Z" fill="white" stroke="#193D1D" stroke-width="2.4" stroke-linejoin="round"></path>
<path d="M157.462 81.8878C156.584 79.1743 154.432 77.0214 151.695 76.1468C154.421 75.2722 156.584 73.1193 157.462 70.4058C158.341 73.1193 160.492 75.2722 163.229 76.1468C160.503 77.0214 158.341 79.1743 157.462 81.8878Z" fill="white"></path>
<path d="M157.462 73.4445C158.194 74.5097 159.118 75.4292 160.188 76.158C159.118 76.8869 158.194 77.8063 157.462 78.8715C156.73 77.8063 155.806 76.8869 154.736 76.158C155.806 75.4292 156.73 74.5097 157.462 73.4445ZM157.462 67.6474C157.034 67.6474 156.617 67.9053 156.527 68.4323L156.426 69.0042C155.874 72.1214 153.419 74.5658 150.287 75.1152L149.713 75.2161C148.665 75.3955 148.665 76.8981 149.713 77.0775L150.287 77.1784C153.419 77.7278 155.874 80.1722 156.426 83.2894L156.527 83.8613C156.617 84.3883 157.045 84.6462 157.462 84.6462C157.879 84.6462 158.307 84.3883 158.397 83.8613L158.498 83.2894C159.05 80.1722 161.506 77.7278 164.637 77.1784L165.212 77.0775C166.259 76.8981 166.259 75.3955 165.212 75.2161L164.637 75.1152C161.506 74.5658 159.05 72.1214 158.498 69.0042L158.397 68.4323C158.307 67.9053 157.879 67.6474 157.462 67.6474Z" fill="#193D1D"></path>
<path d="M96.8757 31.8783H89.8923V128.287H96.8757V31.8783Z" fill="#D3EFD8"></path>
<path d="M109.964 31.8783H102.98V128.287H109.964V31.8783Z" fill="#D3EFD8"></path>
<path d="M123.052 31.8783H116.069V128.287H123.052V31.8783Z" fill="#D3EFD8"></path>
<path d="M136.129 31.8783H129.146V128.287H136.129V31.8783Z" fill="#D3EFD8"></path>
<path d="M146.176 55.2235C145.376 47.4418 139.125 41.2074 131.297 40.4113L130.283 40.3104L131.297 40.2095C139.114 39.4133 145.376 33.1902 146.176 25.3972L146.277 24.3881L146.379 25.3972C147.179 33.1902 153.43 39.4133 161.258 40.2095L162.272 40.3104L161.258 40.4113C153.441 41.2074 147.179 47.4306 146.379 55.2235L146.277 56.2327L146.176 55.2235Z" fill="white"></path>
<path d="M146.289 30.4767C148.125 34.9282 151.707 38.4939 156.178 40.3216C151.707 42.1493 148.125 45.715 146.289 50.1665C144.453 45.715 140.871 42.1493 136.399 40.3216C140.871 38.4939 144.453 34.9282 146.289 30.4767ZM146.289 20.6878C145.782 20.6878 145.275 21.013 145.207 21.6521L144.836 25.2627C144.104 32.4501 138.393 38.1351 131.162 38.8751L127.535 39.2452C126.24 39.3797 126.24 41.2635 127.535 41.3868L131.162 41.7568C138.382 42.4857 144.092 48.1706 144.836 55.3693L145.207 58.9799C145.275 59.6302 145.782 59.9442 146.289 59.9442C146.796 59.9442 147.302 59.619 147.37 58.9799L147.742 55.3693C148.474 48.1818 154.184 42.4969 161.416 41.7568L165.043 41.3868C166.338 41.2523 166.338 39.3685 165.043 39.2452L161.416 38.8751C154.196 38.1463 148.485 32.4613 147.742 25.2627L147.37 21.6521C147.302 21.0018 146.796 20.6878 146.289 20.6878Z" fill="#193D1D"></path>
<path d="M128.526 68.8696C127.648 66.1561 125.496 64.0032 122.759 63.1286C125.485 62.254 127.648 60.1011 128.526 57.3876C129.405 60.1011 131.556 62.254 134.293 63.1286C131.567 64.0032 129.405 66.1561 128.526 68.8696Z" fill="white"></path>
<path d="M128.526 60.4263C129.258 61.4915 130.182 62.411 131.252 63.1398C130.182 63.8687 129.258 64.7881 128.526 65.8534C127.794 64.7881 126.87 63.8687 125.8 63.1398C126.87 62.411 127.794 61.4915 128.526 60.4263ZM128.526 54.6292C128.098 54.6292 127.681 54.8871 127.591 55.4141L127.49 55.986C126.938 59.1032 124.483 61.5476 121.351 62.097L120.777 62.1979C119.729 62.3774 119.729 63.8799 120.777 64.0593L121.351 64.1602C124.483 64.7096 126.938 67.154 127.49 70.2712L127.591 70.8431C127.681 71.3701 128.109 71.628 128.526 71.628C128.943 71.628 129.371 71.3701 129.461 70.8431L129.562 70.2712C130.114 67.154 132.57 64.7096 135.701 64.1602L136.275 64.0593C137.323 63.8799 137.323 62.3774 136.275 62.1979L135.701 62.097C132.57 61.5476 130.114 59.1032 129.562 55.986L129.461 55.4141C129.371 54.8871 128.943 54.6292 128.526 54.6292Z" fill="#193D1D"></path>
</svg>