<svg width="233" height="28" viewBox="0 0 233 28" fill="none" xmlns="http://www.w3.org/2000/svg">
<g clip-path="url(#clip0_80_141)">
<path d="M10.925 27.9137C16.4134 27.9137 19.7171 25.7458 21.1028 22.8379H21.6871V23.3136C21.6871 25.0057 21.3681 26.3805 20.835 27.1738H34.4229C33.4105 24.4771 33.1457 21.1455 33.1457 14.6418V10.1475C33.1457 1.68736 24.1924 -0.00469971 16.2527 -0.00469971C11.8298 -0.00469971 5.64814 0.947094 3.30335 1.79302V9.35441C5.16834 7.71553 9.05915 6.44627 13.4287 6.44627C17.8515 6.44627 21.6871 8.34962 21.6871 12.6325V14.9591H20.9942C19.6623 12.1568 16.3593 9.93592 10.9774 9.93592C3.73003 9.93592 0 14.0605 0 18.9251C0 23.7897 3.73083 27.9137 10.925 27.9137ZM16.4118 21.9916C13.2145 21.9916 11.3501 20.5639 11.3501 18.7135C11.3501 16.8098 13.2145 15.4354 16.4118 15.4354C19.6092 15.4354 21.5279 16.9684 21.5279 18.7135C21.5279 20.6699 19.6092 21.9916 16.4118 21.9916Z" fill="#193D1D"></path>
<path d="M37.1952 27.1738H51.7962C50.837 24.847 50.5172 18.6074 50.5172 16.2279V13.6903C50.5172 10.3063 52.4367 7.60929 56.0601 7.60929C59.6836 7.60929 61.0152 10.2534 61.0152 13.6903V16.1227C61.0152 20.7228 60.9616 23.8954 60.2156 27.1738H74.3371C73.591 23.8954 73.1106 20.3 73.1106 15.647V13.4787C73.1638 10.4646 75.2431 7.60929 78.6536 7.60929C82.2238 7.60929 83.5561 10.2534 83.5561 13.6903V16.1227C83.5561 20.7228 83.1289 23.8954 82.3296 27.1738H96.9306C96.1312 23.8954 95.7058 19.4534 95.7058 14.8533V12.051C95.7058 4.85959 92.4537 -0.00469971 84.4607 -0.00469971C78.6522 -0.00469971 74.7101 2.9033 73.0581 7.39773H72.4177C70.9788 2.85063 67.9963 -0.00469971 61.9215 -0.00469971C56.113 -0.00469971 52.9152 2.9033 51.21 7.39773H50.5714V6.71043C50.5714 4.38392 50.944 2.58651 52.0096 0.735777H37.1952C37.9945 4.01414 38.4217 7.76791 38.4217 12.4209V16.7568C38.4217 21.4102 37.9945 23.8954 37.1952 27.1738Z" fill="#193D1D"></path>
<path d="M109.932 27.9137C115.42 27.9137 118.724 25.7458 120.11 22.8379H120.696V23.3136C120.696 25.0057 120.377 26.3805 119.844 27.1738H133.432C132.419 24.4771 132.153 21.1455 132.153 14.6418V10.1475C132.153 1.68736 123.201 -0.00469971 115.261 -0.00469971C110.839 -0.00469971 104.656 0.947094 102.312 1.79302V9.35441C104.177 7.71553 108.067 6.44627 112.437 6.44627C116.86 6.44627 120.696 8.34962 120.696 12.6325V14.9591H120.003C118.671 12.1568 115.368 9.93592 109.986 9.93592C102.739 9.93592 99.0087 14.0605 99.0087 18.9251C99.0087 23.7897 102.738 27.9137 109.932 27.9137ZM115.421 21.9916C112.223 21.9916 110.359 20.5639 110.359 18.7135C110.359 16.8098 112.223 15.4354 115.421 15.4354C118.618 15.4354 120.537 16.9684 120.537 18.7135C120.537 20.6699 118.618 21.9916 115.421 21.9916Z" fill="#193D1D"></path>
<path d="M136.202 27.1738H150.751C149.845 24.847 149.578 21.5687 149.578 19.1892V16.81C149.578 12.3156 153.36 9.19544 157.623 9.19544C160.288 9.19544 162.792 10.359 164.071 11.681V0.788376C162.899 0.259637 161.407 -0.00469971 159.809 -0.00469971C154.747 -0.00469971 151.23 3.43236 150.217 9.56597H149.578V7.97982C149.578 5.65331 150.164 2.53355 151.444 0.735777H136.202C136.948 4.01414 137.429 7.76791 137.429 12.4209V16.81C137.429 21.4104 136.948 23.8954 136.202 27.1738Z" fill="#193D1D"></path>
<path d="M182.937 27.9137C188.106 27.9137 194.127 26.9618 197.004 25.4812L196.791 16.7568C194.766 18.9777 190.343 20.2471 186.134 20.2471C180.432 20.2471 175.744 17.3914 175.317 14.166L175.742 13.9019C178.78 16.1757 182.511 16.7568 186.667 16.7568C193.435 16.7568 197.591 14.4304 197.591 9.46019C197.591 4.64858 193.541 -0.00469971 182.137 -0.00469971C170.628 -0.00469971 164.765 6.34028 164.765 13.9545C164.765 22.256 171.8 27.9137 182.937 27.9137ZM182.031 13.7429C179.366 13.7429 177.235 13.1613 175.69 11.7336C176.223 8.66683 178.781 7.23934 181.392 7.23934C184.536 7.23934 186.506 8.56144 186.506 10.6764C186.506 12.5271 184.376 13.7429 182.031 13.7429Z" fill="#193D1D"></path>
<path d="M209.474 27.9137C214.963 27.9137 218.267 25.7458 219.652 22.8379H220.238V23.3136C220.238 25.0057 219.919 26.3805 219.386 27.1738H232.974C231.962 24.4771 231.695 21.1455 231.695 14.6418V10.1475C231.695 1.68736 222.742 -0.00469971 214.802 -0.00469971C210.379 -0.00469971 204.199 0.947094 201.855 1.79302V9.35441C203.72 7.71553 207.609 6.44627 211.978 6.44627C216.401 6.44627 220.238 8.34962 220.238 12.6325V14.9591H219.545C218.213 12.1568 214.909 9.93592 209.527 9.93592C202.28 9.93592 198.549 14.0605 198.549 18.9251C198.549 23.7897 202.281 27.9137 209.474 27.9137ZM214.963 21.9916C211.766 21.9916 209.901 20.5639 209.901 18.7135C209.901 16.8098 211.766 15.4354 214.963 15.4354C218.16 15.4354 220.077 16.9684 220.077 18.7135C220.077 20.6699 218.16 21.9916 214.963 21.9916Z" fill="#193D1D"></path>
</g>
<defs>
<clipPath id="clip0_80_141">
<rect width="233" height="28" fill="white"></rect>
</clipPath>
</defs>
</svg>