<svg width="195" height="154" viewBox="0 0 195 154" fill="none" xmlns="http://www.w3.org/2000/svg">
<path d="M162.005 79.4193C162.377 79.5564 162.671 79.6543 162.926 79.7521" stroke="#193D1D" stroke-width="2.4" stroke-linecap="round" stroke-linejoin="round"></path>
<path d="M164.924 86.6438C165.276 96.8051 164.669 120.221 164.375 130.284" stroke="#193D1D" stroke-width="2.4" stroke-linecap="round" stroke-linejoin="round" stroke-dasharray="1.37 5.48"></path>
<path d="M149.33 106.712C157.656 106.712 155.991 81.2989 152.661 71.0005C149.33 60.7022 141.768 46.4881 133.58 47.3887C125.391 48.2893 127.213 69.7866 130.249 81.201C133.286 92.6153 141.004 106.692 149.33 106.692V106.712Z" stroke="#193D1D" stroke-width="2.4" stroke-miterlimit="10"></path>
<path d="M49.6757 33.39C49.6757 33.39 57.0807 40.7907 64.9364 41.6718C72.792 42.5528 85.9762 39.4594 96.3393 41.6718C106.702 43.8841 114.95 49.7186 117.046 57.4913C119.142 65.264 115.361 80.1045 110.699 86.5263C107.369 91.0881 98.3571 91.1077 96.5548 82.8455C94.7525 74.5834 97.6519 67.8288 97.6519 67.8288C97.6519 67.8288 94.2628 61.4853 84.0171 64.5004C79.5114 65.8317 51.5759 74.7987 44.5431 77.3831C37.5102 79.9675 37.5886 97.0596 42.1139 109.159C46.6392 121.259 51.3212 129.012 56.7673 130.519C62.2133 132.027 65.1714 130.852 66.9346 130.343C68.6977 129.834 150.193 106.634 150.193 106.634" stroke="#193D1D" stroke-width="2.4" stroke-miterlimit="10"></path>
<path d="M71.7732 111.939C69.3833 107.769 60.6265 108.631 61.4297 116.991C61.9978 122.962 67.7181 132.203 70.9701 134.024C74.222 135.845 78.6494 135.375 82.3323 131.224" fill="white"></path>
<path d="M71.7732 111.939C69.3833 107.769 60.6265 108.631 61.4297 116.991C61.9978 122.962 67.7181 132.203 70.9701 134.024C74.222 135.845 78.6494 135.375 82.3323 131.224" stroke="#193D1D" stroke-width="2.4" stroke-miterlimit="10"></path>
<path d="M83.0765 102.894C80.9608 97.2554 69.3634 98.2539 71.1461 108.983C72.9288 119.712 80.1968 132.575 87.4843 133.241C94.7718 133.907 96.5349 130.187 97.6515 128.757" fill="white"></path>
<path d="M83.0765 102.894C80.9608 97.2554 69.3634 98.2539 71.1461 108.983C72.9288 119.712 80.1968 132.575 87.4843 133.241C94.7718 133.907 96.5349 130.187 97.6515 128.757" stroke="#193D1D" stroke-width="2.4" stroke-miterlimit="10"></path>
<path d="M113.637 125.507C111.757 128.659 108.289 133.025 101.021 130.559C93.7532 128.092 84.4675 112.801 83.2333 104.989C81.9991 97.1771 88.699 95.5325 92.6366 96.3548C96.5742 97.1771 98.8271 99.2524 99.3168 103.56" fill="white"></path>
<path d="M113.637 125.507C111.757 128.659 108.289 133.025 101.021 130.559C93.7532 128.092 84.4675 112.801 83.2333 104.989C81.9991 97.1771 88.699 95.5325 92.6366 96.3548C96.5742 97.1771 98.8271 99.2524 99.3168 103.56" stroke="#193D1D" stroke-width="2.4" stroke-miterlimit="10"></path>
<path d="M132.737 111.704C135.206 117.95 132.737 128.464 122.785 128.464C112.834 128.464 102.568 118.302 99.6299 109.022C96.6718 99.7419 105.918 95.2584 111.952 100.271C117.986 105.283 122.315 112.664 126.233 113.055C129.113 113.349 132.757 111.724 132.757 111.724L132.737 111.704Z" fill="white" stroke="#193D1D" stroke-width="2.4" stroke-linejoin="round"></path>
<path d="M154.894 64.6962L141.926 68.4162C139.026 69.1601 137.498 72.9388 138.497 76.8741C139.496 80.8094 142.67 83.3938 145.55 82.6498L158.518 78.9299" fill="white"></path>
<path d="M154.894 64.6962L141.926 68.4162C139.026 69.1601 137.498 72.9388 138.497 76.8741C139.496 80.8094 142.67 83.3938 145.55 82.6498L158.518 78.9299" stroke="#193D1D" stroke-width="2.4" stroke-miterlimit="10"></path>
<path d="M158.532 78.924C161.426 78.1859 162.958 74.4025 161.954 70.4737C160.951 66.5448 157.792 63.9582 154.898 64.6963C152.005 65.4345 150.473 69.2178 151.477 73.1467C152.48 77.0756 155.639 79.6622 158.532 78.924Z" fill="white" stroke="#193D1D" stroke-width="2.4" stroke-miterlimit="10"></path>
<path d="M99.9636 110.04C102.765 112.429 107.545 111.626 109.759 108.846C111.972 106.066 110.17 101.328 107.682 100.447C105.194 99.5657 100.826 100.819 99.4934 102.894" stroke="#193D1D" stroke-width="2.4" stroke-miterlimit="10"></path>
<path d="M83.9191 107.808C87.1123 110.412 92.4996 110.001 95.0855 106.79C97.6714 103.579 95.3205 98.3714 92.049 97.5687C88.7774 96.766 85.1533 98.0581 83.6644 100.212" stroke="#193D1D" stroke-width="2.4" stroke-miterlimit="10"></path>
<path d="M71.4402 110.53C74.1829 112.742 79.002 111.587 80.6476 109.081C82.2932 106.575 81.3333 101.641 77.9442 101.152C74.5551 100.662 72.694 101.876 71.4207 103.853" stroke="#193D1D" stroke-width="2.4" stroke-miterlimit="10"></path>
<path d="M61.6448 118.4C64.3482 120.378 69.089 119.36 70.3036 117.598C71.4398 115.953 70.6366 111.9 68.0507 110.941C65.4648 109.981 62.4676 111.45 61.8015 113.29" stroke="#193D1D" stroke-width="2.4" stroke-miterlimit="10"></path>
<path d="M32.38 104.76C32.28 104.76 31.96 104.73 31.92 104.35L30.91 94.43C30.23 87.81 24.94 82.52 18.33 81.85L8.41 80.84C8.03 80.8 8 80.48 8 80.38C8 80.28 8.03 79.96 8.41 79.92L18.33 78.91C24.95 78.23 30.24 72.94 30.91 66.33L31.92 56.41C31.96 56.03 32.28 56 32.38 56C32.48 56 32.8 56.03 32.84 56.41L33.85 66.33C34.53 72.95 39.82 78.24 46.43 78.91L56.35 79.92C56.73 79.96 56.76 80.28 56.76 80.38C56.76 80.48 56.73 80.8 56.35 80.84L46.43 81.85C39.81 82.53 34.52 87.82 33.85 94.43L32.84 104.35C32.8 104.73 32.48 104.76 32.38 104.76Z" fill="white" stroke="#193D1D" stroke-width="2.4"></path>
<path d="M165.5 63C165.348 63 165.011 62.9494 164.926 62.5106L163.947 56.9248C163.07 51.8959 159.087 47.9301 154.075 47.0526L148.489 46.0738C148.034 45.9894 148 45.6181 148 45.5C148 45.3819 148.034 45.0106 148.489 44.9262L154.075 43.9474C159.104 43.0699 163.07 39.0873 163.947 34.0752L164.926 28.4894C165.011 28.0506 165.348 28 165.5 28C165.618 28 165.989 28.0338 166.074 28.4894L167.053 34.0752C167.93 39.1041 171.913 43.0699 176.925 43.9474L182.511 44.9262C182.966 45.0106 183 45.3819 183 45.5C183 45.6181 182.966 45.9894 182.511 46.0738L176.925 47.0526C171.896 47.9301 167.93 51.9127 167.053 56.9248L166.074 62.5106C165.989 62.9662 165.618 63 165.5 63Z" fill="white" stroke="#193D1D" stroke-width="2.4"></path>
<path d="M123.37 38.74C123.28 38.74 123.08 38.71 123.03 38.45L122.45 35.14C121.93 32.16 119.57 29.81 116.6 29.29L113.29 28.71C113.02 28.66 113 28.44 113 28.37C113 28.3 113.02 28.08 113.29 28.03L116.6 27.45C119.58 26.93 121.93 24.57 122.45 21.6L123.03 18.29C123.08 18.03 123.28 18 123.37 18C123.44 18 123.66 18.02 123.71 18.29L124.29 21.6C124.81 24.58 127.17 26.93 130.14 27.45L133.45 28.03C133.72 28.08 133.74 28.3 133.74 28.37C133.74 28.44 133.72 28.66 133.45 28.71L130.14 29.29C127.16 29.81 124.81 32.17 124.29 35.14L123.71 38.45C123.66 38.72 123.44 38.74 123.37 38.74Z" fill="white" stroke="#193D1D" stroke-width="2.4"></path>
</svg>